<svg xmlns="http://www.w3.org/2000/svg" viewBox="0 0 295.63 341.86"><defs><style>.cls-1{fill:#a6ce39;}.cls-1,.cls-2,.cls-3{fill-rule:evenodd;}.cls-2{fill:#007236;}.cls-3{fill:#fff;}</style></defs><title>Asset 1</title><g id="Layer_2" data-name="Layer 2"><g id="Layer_1-2" data-name="Layer 1"><path class="cls-1" d="M165.71,22.55H238.5a57.3,57.3,0,0,1,57.13,57.13V261.05a57.35,57.35,0,0,1-47.7,56.34,168.49,168.49,0,0,0,8.82-17,52.88,52.88,0,0,0,27.52-46.28V86.65A52.9,52.9,0,0,0,231.53,33.9H160.94c1.47-3.82,3-7.64,4.77-11.35"/><path class="cls-2" d="M57.13,22.55h73.73C144.8,9.29,164.36.63,182.32,0c-10.73,8.62-16.52,21.23-21.38,33.9H64.09A52.91,52.91,0,0,0,11.35,86.65V254.08a52.9,52.9,0,0,0,52.74,52.74H227.54c.71,3.81,1.31,7.6,1.7,11.36H57.13A57.3,57.3,0,0,1,0,261.05V79.68A57.3,57.3,0,0,1,57.13,22.55"/><path class="cls-3" d="M64.09,33.9H231.53a52.9,52.9,0,0,1,52.74,52.75V254.08a52.89,52.89,0,0,1-52.74,52.74H64.09a52.9,52.9,0,0,1-52.74-52.74V86.65A52.91,52.91,0,0,1,64.09,33.9"/><path class="cls-2" d="M196.58,166.08c-274-303.24,277.2,306.8,0,0M68.15,47.85h47.16c-55.13,98.24,83.77,156.82,113,245H68.15A43,43,0,0,1,25.3,250V90.7A43,43,0,0,1,68.15,47.85Z"/><path class="cls-1" d="M118.68,47.85H227.47A43,43,0,0,1,270.32,90.7V241.49a66.4,66.4,0,0,1,0,10.26,43.78,43.78,0,0,1-.61,5.65c-3.93,28.9-21.48,67.73-41.43,84.46,3.61-15.41.18-32.34-3.71-49h3.81l25.27-30.92c-3-36.3-29.46-65.33-57-95.86-35.77-39.59-71.93-76.34-77.9-118.23"/><path class="cls-3" d="M118.13,43.05C47.46,157.44,239.54,218,233.53,329.74c45.91-72.68,5.77-116.37-36.95-163.66-37.13-41.09-74.69-79.14-78.45-123"/><path class="cls-3" d="M110.49,145.87c8.79,15.51,23,31,34.61,45.15l-13.93,30.8h41.67c4.44,5.18,8.92,10.47,13.2,15.64H125.11c-11.66,15.85-4.58,26.62,13.29,28.08l.28,4.22H41.36l-.07-3.83c11.25-.69,21-9.86,27.83-25.94Z"/><path class="cls-3" d="M176.08,2.34c-11.64,2.51-38.56,24.71-40.84,46-1.4,13.08,3.66,25.9,11.52,37.79,19.57,29.63,49,59,62.81,77-31-47.09-83.9-105.59-33.49-160.82"/></g></g></svg>