<svg xmlns="http://www.w3.org/2000/svg" width="64" height="64" viewBox="0 0 64 64" version="1.1"><path d="" stroke="none" fill="#080404" fill-rule="evenodd"/><path d="M 32 2.356 C 32 4.431, 32.796 4.909, 38.653 6.354 C 49.938 9.139, 54.897 14.357, 57.037 25.694 C 58.330 32.547, 60.315 34.658, 62.568 31.576 C 64.055 29.543, 63.572 24.504, 61.273 18.059 C 57.836 8.425, 46.430 0.030, 36.750 0.010 C 32.424 0.001, 32 0.211, 32 2.356 M 6.314 4.950 C -0.606 9.169, -1.010 15.597, 4.951 26.647 C 10.378 36.708, 16.715 44.608, 24.285 50.750 C 32.654 57.540, 44.611 63.968, 48.906 63.986 C 55.590 64.014, 63.560 54.783, 60.993 49.987 C 60.414 48.905, 57.431 46.125, 54.364 43.810 C 47.854 38.894, 43.449 38.290, 39.713 41.800 C 38.425 43.010, 36.581 44, 35.616 44 C 32.546 44, 25.140 38.094, 22.446 33.499 C 19.647 28.722, 19.805 25.710, 22.943 24.031 C 27.149 21.779, 25.260 14.615, 18.483 7.113 C 14.242 2.419, 11.318 1.899, 6.314 4.950 M 33.362 9.500 C 32.347 12.144, 33.641 13.489, 38.435 14.771 C 43.836 16.216, 47.600 19.786, 48.513 24.329 C 49.760 30.540, 50.105 31.126, 52.336 30.808 C 57.087 30.131, 54.841 18.901, 48.834 13.298 C 43.946 8.739, 34.540 6.430, 33.362 9.500 M 34.667 16.667 C 33.137 18.197, 34.185 20.979, 36.750 22.195 C 38.263 22.913, 40.152 24.982, 40.949 26.793 C 42.007 29.197, 42.952 30.008, 44.449 29.793 C 49.263 29.105, 46.283 19.852, 40.466 17.421 C 36.660 15.831, 35.635 15.698, 34.667 16.667" stroke="none" fill="#040404" fill-rule="evenodd"/></svg>