<svg xmlns="http://www.w3.org/2000/svg" width="64" height="64" viewBox="0 0 64 64" version="1.1"><path d="" stroke="none" fill="#080404" fill-rule="evenodd"/><path d="M 8.020 4.752 C 6.106 5.713, 3.518 8.029, 2.270 9.898 C 0.239 12.938, -0 14.505, -0 24.780 C -0 38.152, 1.405 41.641, 8.018 44.688 L 11.948 46.500 11.974 53.281 C 12.011 63.020, 13.379 63.065, 22.859 53.640 L 30.544 46 42.404 46 C 55.723 46, 59.686 44.589, 62.178 38.959 C 62.899 37.332, 63.828 36, 64.244 36 C 64.660 36, 65 30.525, 65 23.833 C 65 17.142, 64.718 11.949, 64.373 12.293 C 64.029 12.638, 62.782 11.475, 61.603 9.710 C 57.526 3.603, 54.876 3.003, 32 3.003 C 14.477 3.003, 10.995 3.257, 8.020 4.752 M 0.385 25 C 0.385 31.875, 0.545 34.688, 0.740 31.250 C 0.936 27.813, 0.936 22.188, 0.740 18.750 C 0.545 15.313, 0.385 18.125, 0.385 25 M 13.713 16.621 C 13.321 17.013, 13 21.083, 13 25.667 C 13 32.407, 13.287 34, 14.500 34 C 15.583 34, 16 32.889, 16 30 C 16 26.400, 16.250 26, 18.500 26 C 19.875 26, 21 25.550, 21 25 C 21 24.450, 19.875 24, 18.500 24 C 16.516 24, 16 23.496, 16 21.560 C 16 19.463, 16.526 19.077, 19.750 18.810 C 21.813 18.640, 23.500 18.050, 23.500 17.500 C 23.500 16.341, 14.776 15.557, 13.713 16.621 M 29.441 16.766 C 28.528 17.399, 23.988 31.145, 23.997 33.250 C 24.004 34.922, 26.804 33.859, 27.290 32 C 27.665 30.565, 28.654 30, 30.790 30 C 32.926 30, 33.914 30.565, 34.290 32 C 35.003 34.729, 37.021 34.537, 36.913 31.750 C 36.784 28.434, 32.662 16.697, 31.500 16.340 C 30.950 16.171, 30.024 16.363, 29.441 16.766 M 43.834 17.391 C 41.788 18.408, 41.464 19.379, 41.204 25.276 C 40.926 31.610, 41.054 32.067, 43.408 33.140 C 44.782 33.766, 46.101 35.003, 46.338 35.889 C 46.691 37.211, 46.789 37.229, 46.884 35.987 C 46.948 35.155, 48.013 34.030, 49.250 33.487 C 51.189 32.636, 51.541 31.625, 51.800 26.163 C 51.968 22.620, 51.622 19.250, 51.017 18.521 C 49.387 16.556, 46.446 16.094, 43.834 17.391 M 44.701 19.632 C 43.657 20.676, 43.852 31, 44.917 31 C 45.421 31, 46.060 30.438, 46.338 29.750 C 46.741 28.750, 46.858 28.750, 46.921 29.750 C 46.964 30.438, 47.472 31, 48.050 31 C 48.696 31, 48.984 28.792, 48.800 25.260 C 48.579 21.033, 48.092 19.442, 46.951 19.225 C 46.099 19.063, 45.087 19.246, 44.701 19.632 M 29.648 23.184 C 28.621 27.016, 28.901 28, 31.019 28 C 32.712 28, 32.933 27.556, 32.390 25.250 C 31.465 21.325, 30.367 20.498, 29.648 23.184" stroke="none" fill="#040404" fill-rule="evenodd"/></svg>