<svg xmlns="http://www.w3.org/2000/svg" width="64" height="64" viewBox="0 0 64 64" version="1.1"><path d="" stroke="none" fill="#080404" fill-rule="evenodd"/><path d="M 26.500 5.720 C 16.896 9.601, 11 17.411, 11 26.251 C 11 32.244, 12.119 35.019, 16.485 39.851 C 21.039 44.892, 27.390 47.869, 35.278 48.661 C 38.700 49.004, 43.623 50.346, 46.217 51.642 C 51.330 54.198, 55.601 54.698, 56.228 52.815 C 56.446 52.163, 56.174 49.948, 55.626 47.892 C 54.690 44.386, 54.850 43.908, 58.212 40.188 C 60.182 38.006, 62.160 35.159, 62.606 33.861 C 63.370 31.636, 63.460 31.702, 64.161 35 C 64.603 37.081, 64.726 35.058, 64.465 30.013 C 63.906 19.198, 61.348 13.802, 54.635 9.277 C 52.006 7.504, 48.200 5.594, 46.177 5.033 C 40.772 3.531, 31.077 3.870, 26.500 5.720 M 7.663 18.456 C 2.815 22.130, 1 26.162, 1 33.260 C 1 40.819, 1.776 42.953, 6.245 47.676 C 8.984 50.572, 9.189 51.256, 8.563 55.426 C 7.739 60.924, 9.016 61.336, 15.412 57.635 C 17.865 56.215, 22.083 54.986, 25.957 54.562 C 29.508 54.172, 34.008 53.137, 35.957 52.260 L 39.500 50.667 32.901 49.930 C 29.271 49.526, 24.515 48.283, 22.333 47.170 C 17.890 44.903, 11.410 38.209, 9.955 34.383 C 8.717 31.126, 8.728 22.844, 9.975 19.565 C 11.063 16.703, 10.397 16.384, 7.663 18.456 M 28.040 23.452 C 26.157 25.721, 27.184 28.500, 29.905 28.500 C 33.059 28.500, 34.846 25.724, 33.070 23.584 C 31.432 21.610, 29.608 21.562, 28.040 23.452 M 41.930 23.584 C 40.154 25.724, 41.941 28.500, 45.095 28.500 C 47.816 28.500, 48.843 25.721, 46.960 23.452 C 45.392 21.562, 43.568 21.610, 41.930 23.584" stroke="none" fill="#040404" fill-rule="evenodd"/></svg>