<svg xmlns="http://www.w3.org/2000/svg" width="64" height="64" viewBox="0 0 64 64" version="1.1"><path d="" stroke="none" fill="#080404" fill-rule="evenodd"/><path d="M 2 6 C 0.145 7.855, 0 9.333, 0 26.441 C 0 38.088, 0.382 45.118, 1.036 45.522 C 1.606 45.875, 5.094 44.100, 8.786 41.579 L 15.500 36.995 28.316 36.998 C 35.364 36.999, 41.955 36.559, 42.961 36.021 C 43.967 35.483, 45.287 33.616, 45.895 31.872 C 47.055 28.545, 47.438 8.305, 46.393 5.582 C 45.866 4.209, 43.022 4, 24.893 4 C 5.333 4, 3.872 4.128, 2 6 M 12 15.893 C 12 17.493, 15.006 18, 24.500 18 C 34.167 18, 37.385 17.432, 36.435 15.895 C 35.713 14.727, 12 14.725, 12 15.893 M 49.667 18.667 C 49.300 19.033, 49 22.608, 49 26.611 C 49 32.858, 48.659 34.286, 46.590 36.694 C 44.222 39.451, 43.949 39.509, 30.840 40 L 17.500 40.500 17.758 44 C 17.926 46.272, 18.910 48.290, 20.564 49.750 C 22.933 51.843, 24.041 52, 36.393 52 L 49.674 52 55.260 56 C 64.265 62.448, 64 62.901, 64 41.073 L 64 22.145 61.365 20.073 C 58.797 18.052, 51.195 17.139, 49.667 18.667 M 12.697 23.637 C 10.728 25.605, 13.059 26.037, 24.250 25.781 C 31.777 25.608, 36.405 25.114, 36.254 24.500 C 35.974 23.363, 13.783 22.550, 12.697 23.637" stroke="none" fill="#040404" fill-rule="evenodd"/></svg>