<svg xmlns="http://www.w3.org/2000/svg" xmlns:xlink="http://www.w3.org/1999/xlink" viewBox="0 0 309 61.49"><defs><style>.cls-1,.cls-6{fill:none;}.cls-2,.cls-3{fill:#54af3a;}.cls-2,.cls-5{fill-rule:evenodd;}.cls-4{clip-path:url(#clip-path);}.cls-5{fill:#fefefe;}.cls-6{stroke:#fefefe;stroke-miterlimit:22.93;stroke-width:2px;}</style><clipPath id="clip-path" transform="translate(0 1.98)"><path class="cls-1" d="M134.1,23.61a5.73,5.73,0,0,0-5.56,3.78,10.73,10.73,0,0,0-.75,4.05,6.93,6.93,0,0,0,1.61,4.92,5.35,5.35,0,0,0,4,1.71,5.88,5.88,0,0,0,3.32-1A6,6,0,0,0,139,34.2a11.16,11.16,0,0,0,.75-4.11,8.77,8.77,0,0,0-.59-3.27,4.91,4.91,0,0,0-1.92-2.33,5.51,5.51,0,0,0-3.12-.88m.2-8.64a22.15,22.15,0,0,1,7,1.11A15.7,15.7,0,0,1,147,19.29a12.82,12.82,0,0,1,3.42,4.9,16.35,16.35,0,0,1,1.1,6,18.17,18.17,0,0,1-1,6,14.92,14.92,0,0,1-3.33,5.3,14.54,14.54,0,0,1-6,3.71,24.41,24.41,0,0,1-14.83.15,15.35,15.35,0,0,1-5.73-3.17,13.21,13.21,0,0,1-3.46-5A16.32,16.32,0,0,1,116,31.09a16.72,16.72,0,0,1,1.13-6.1,14.13,14.13,0,0,1,3.58-5.21,16.42,16.42,0,0,1,6.05-3.56A22.89,22.89,0,0,1,134.3,15Z"/></clipPath></defs><title>Asset 3</title><g id="Layer_2" data-name="Layer 2"><g id="Layer_1-2" data-name="Layer 1"><path class="cls-2" d="M274,45.49q.84-6.54,1.27-14.44t.53-15q3.46.06,6,.06c1.94,0,3.81,0,5.6-.06L287.13,20a18.92,18.92,0,0,1,1.63-1.67,10.18,10.18,0,0,1,1.71-1.2,12.44,12.44,0,0,1,2.17-1,16.86,16.86,0,0,1,2.51-.58,19,19,0,0,1,2.86-.21,18,18,0,0,1,4,.44,10.46,10.46,0,0,1,3.29,1.27,7.66,7.66,0,0,1,2.21,2,6.87,6.87,0,0,1,1.18,2.62,14.45,14.45,0,0,1,.28,2.89c0,.73-.07,2.31-.23,4.73l-.48,10.41c-.1,2.06-.15,4-.15,5.71-1.94,0-3.75-.06-5.44-.06q-3.43,0-6.24.06c.17-1.75.37-4.34.57-7.79s.3-5.87.3-7.27c0-2.16-.42-3.66-1.25-4.52a4.27,4.27,0,0,0-3.17-1.27,5.27,5.27,0,0,0-3.16,1.08,7,7,0,0,0-2.28,3.19,25.28,25.28,0,0,0-1.14,6.86q-.34,4.77-.46,9.72-2.87-.06-5.61-.06t-6.24.06m-62.18,0-3-9.45-6.87-19.95c2.19,0,4.21.06,6.09.06s3.79,0,5.52-.06q.48,2,1.92,7c1,3.31,2,7.26,3.17,11.82l.74-2.38c.12-.3.57-1.52,1.36-3.69l4.57-12.7c2.07,0,4,.06,5.86.06s3.88,0,5.93-.06l-4,8.55-7.4,17-1.58,3.86c-2.27,0-4.26-.06-6-.06S214.18,45.45,211.84,45.49Zm-26.47,0c.27-2.35.46-4.27.59-5.79s.27-3.45.39-5.82.23-5,.32-7.82c0-1,.07-2.14.1-3.31h11.47c-.07,1-.12,2-.16,2.91-.14,2.73-.23,5.64-.27,8.71q-.1,8.18-.11,11.12-3.42-.06-5.91-.06T185.37,45.49Zm71.61-7a16,16,0,0,1-2.74,1.13h0a10.88,10.88,0,0,1-1.36.32,8.92,8.92,0,0,1-1.31.1,3.67,3.67,0,0,1-2.48-.7,2.23,2.23,0,0,1-.79-1.7,2.41,2.41,0,0,1,.28-1.17,3,3,0,0,1,.91-1,5.65,5.65,0,0,1,1.52-.82c.58-.22,1.39-.47,2.43-.79s1.75-.55,2.16-.7,1-.41,1.71-.76Q257.13,35.88,257,38.52Zm-.23,7h0l.49-7.11m-4.46,7.47c1.31-.2,2.55-.23,4-.36,1.91,0,3.73,0,5.45,0s3.73,0,5.61.06q.22-9.15.65-14.78c.28-3.76.43-6.17.43-7.24a6.88,6.88,0,0,0-1.58-4.86,9,9,0,0,0-4.39-2.46,23.61,23.61,0,0,0-6.2-.76,68,68,0,0,0-14.22,1.82c-.21,1.52-.36,2.64-.46,3.35s-.32,2-.69,3.9q7.25-2.78,12.18-2.77a5,5,0,0,1,2.69.6,2,2,0,0,1,.29,3.14,3.08,3.08,0,0,1-.85.57,13.23,13.23,0,0,1-1.78.58c-.83.21-1.75.42-2.74.62a48,48,0,0,0-5.93,1.46,16.29,16.29,0,0,0-3.68,1.66,10.27,10.27,0,0,0-2.35,2.11A8.7,8.7,0,0,0,237.7,35a7.83,7.83,0,0,0-.47,2.65,8.73,8.73,0,0,0,1.28,4.44,7.48,7.48,0,0,0,3.65,3.21,15.48,15.48,0,0,0,5.94,1,28.15,28.15,0,0,0,4.27-.34h0l.41-.07Z" transform="translate(0 1.98)"/><polygon class="cls-2" points="186.69 21.66 186.77 18 198.24 18 198.08 21.66 186.69 21.66"/><path class="cls-2" d="M152.42,35.48a34.35,34.35,0,0,0,4.14,1.27,18,18,0,0,0,3.71.43,8.09,8.09,0,0,0,3.45-.7,4.73,4.73,0,0,0,1.81-1.42,7,7,0,0,0,1.2-2.84,80.05,80.05,0,0,0,.83-10.15q.28-7.21.29-12.5V6.2l6.13.06c1.26,0,3.43,0,6.49-.06l-.87,12.74q-.32,5.65-.46,12a45.13,45.13,0,0,1-.49,6.72,10,10,0,0,1-1,2.77,7.94,7.94,0,0,1-1.44,1.9,10.61,10.61,0,0,1-2.56,1.76,17.77,17.77,0,0,1-4.28,1.55,23.44,23.44,0,0,1-5.34.58,53.36,53.36,0,0,1-11.64-1.48Zm-60.87,10,.91-12.78.3-7.35c0-1.32,0-2.67,0-4.05s0-3.14,0-5.22c2.31,0,4.16.06,5.51.06,1.6,0,3.43,0,5.5-.06l-.13,3.29a22.11,22.11,0,0,1,1.86-1.88,9.09,9.09,0,0,1,1.64-1.12,7.87,7.87,0,0,1,1.93-.75,9.16,9.16,0,0,1,2.11-.24,10.64,10.64,0,0,1,2.31.29c0,2.09.07,3.81.15,5.18l.2,4.42a10.63,10.63,0,0,0-3-.47,8.14,8.14,0,0,0-3,.5,6.32,6.32,0,0,0-2.22,1.53,7.67,7.67,0,0,0-1.55,2.55,18.39,18.39,0,0,0-.8,4.83q-.24,3.3-.24,7.56c0,1,0,2.23.12,3.71-1.86,0-3.74-.06-5.61-.06S93.68,45.45,91.55,45.49ZM55.08,49a44.26,44.26,0,0,0,6.52,1.79,28.33,28.33,0,0,0,4.93.51A10.71,10.71,0,0,0,69.29,51a6.86,6.86,0,0,0,2-.82,4.76,4.76,0,0,0,1.29-1.24,6,6,0,0,0,.82-1.68,10,10,0,0,0,.4-2.13c.08-.8.15-1.91.2-3.33-.74.66-1.39,1.2-1.94,1.61a12.13,12.13,0,0,1-2,1.15,11.44,11.44,0,0,1-2.63.87,14.66,14.66,0,0,1-3,.3A12.9,12.9,0,0,1,57.78,44a10.44,10.44,0,0,1-4.38-4.73A15.08,15.08,0,0,1,52,32.71a17.85,17.85,0,0,1,1.55-7.53A16,16,0,0,1,58,19.49a16.71,16.71,0,0,1,6.34-3.21,31.11,31.11,0,0,1,7.83-.89c1.67,0,3.56.1,5.68.29s5,.63,8.73,1.3l-.67,9.49L85.27,36.9c0,.74,0,1.35,0,1.83L85,48.09a18.48,18.48,0,0,1-.43,3.4,9.3,9.3,0,0,1-1.07,2.72,8.58,8.58,0,0,1-1.84,2.22A10.11,10.11,0,0,1,79,58.07a18.46,18.46,0,0,1-3.6,1,26.52,26.52,0,0,1-4.7.41c-.93,0-2.06,0-3.4-.13s-2.73-.22-4.13-.38-2.64-.36-3.67-.55-2.32-.47-3.9-.83l-.2-3.82C55.33,53.07,55.24,51.48,55.08,49ZM22.26,25.93h8.93q-3.35-10.14-3.66-11.18c-1.26,2.82-2.33,5.12-3.21,6.93ZM65.39,23c4.28-2.53,9.49-2.08,11.63,1s.42,7.66-3.86,10.2-9.49,2.08-11.64-1S61.11,25.58,65.39,23ZM0,45.49l2.39-4.15,14.86-28,1.58-3.14c.46-.92,1.1-2.24,1.92-4q5.07.06,7.4.06,4.05,0,7.51-.06l4.19,12L48.4,41.29l1.67,4.2-6-.06q-2.41,0-7.11.06-1.26-4.76-3.66-11.19H18.78q-2.49,5.07-5.15,11.19l-6.57-.06Q4.87,45.43,0,45.49Z" transform="translate(0 1.98)"/><path class="cls-3" d="M134.1,23.61a5.73,5.73,0,0,0-5.56,3.78,10.73,10.73,0,0,0-.75,4.05,6.93,6.93,0,0,0,1.61,4.92,5.35,5.35,0,0,0,4,1.71,5.88,5.88,0,0,0,3.32-1A6,6,0,0,0,139,34.2a11.16,11.16,0,0,0,.75-4.11,8.77,8.77,0,0,0-.59-3.27,4.91,4.91,0,0,0-1.92-2.33,5.51,5.51,0,0,0-3.12-.88m.2-8.64a22.15,22.15,0,0,1,7,1.11A15.7,15.7,0,0,1,147,19.29a12.82,12.82,0,0,1,3.42,4.9,16.35,16.35,0,0,1,1.1,6,18.17,18.17,0,0,1-1,6,14.92,14.92,0,0,1-3.33,5.3,14.54,14.54,0,0,1-6,3.71,24.41,24.41,0,0,1-14.83.15,15.35,15.35,0,0,1-5.73-3.17,13.21,13.21,0,0,1-3.46-5A16.32,16.32,0,0,1,116,31.09a16.72,16.72,0,0,1,1.13-6.1,14.13,14.13,0,0,1,3.58-5.21,16.42,16.42,0,0,1,6.05-3.56A22.89,22.89,0,0,1,134.3,15Z" transform="translate(0 1.98)"/><g class="cls-4"><path class="cls-5" d="M148.77,11.75c-1.93,10.54-15.51,24.16-30,28.22a52.54,52.54,0,0,0,24.55-28.75l-4.12.35,8-11.57,6.23,12.89Z" transform="translate(0 1.98)"/><path class="cls-6" d="M148.77,11.75c-1.93,10.54-15.51,24.16-30,28.22a52.54,52.54,0,0,0,24.55-28.75l-4.12.35,8-11.57,6.23,12.89Z" transform="translate(0 1.98)"/></g><path class="cls-2" d="M148.77,11.75c-1.93,10.54-15.51,24.16-30,28.22a52.54,52.54,0,0,0,24.55-28.75l-4.12.35,8-11.57,6.23,12.89-4.65-1.14" transform="translate(0 1.98)"/><path class="cls-3" d="M309,5.82A1.45,1.45,0,0,1,308.33,7a2.66,2.66,0,0,1-1.68.48,4.21,4.21,0,0,1-1.11-.14,4.77,4.77,0,0,1-.85-.32V6h.05a3.74,3.74,0,0,0,1,.53,3,3,0,0,0,1,.19,1.8,1.8,0,0,0,.94-.2.64.64,0,0,0,.34-.61.63.63,0,0,0-.18-.49,1.61,1.61,0,0,0-.71-.28l-.51-.11L306,4.94a2,2,0,0,1-1-.56,1.4,1.4,0,0,1-.3-.91,1.52,1.52,0,0,1,.14-.63,1.41,1.41,0,0,1,.42-.53,2.21,2.21,0,0,1,.7-.37,3.46,3.46,0,0,1,.95-.13,4.32,4.32,0,0,1,1,.12,4,4,0,0,1,.83.29v1h-.05a3.39,3.39,0,0,0-.85-.44,2.92,2.92,0,0,0-1-.18,1.68,1.68,0,0,0-.84.19.64.64,0,0,0-.35.58.61.61,0,0,0,.21.51,1.71,1.71,0,0,0,.66.28l.57.11.52.11a2.06,2.06,0,0,1,1,.5,1.33,1.33,0,0,1,.34,1M303.55,3h-.05a2.79,2.79,0,0,0-.4-.07l-.45,0a1.8,1.8,0,0,0-.82.19,3.51,3.51,0,0,0-.77.48V7.4h-.92V2h.92v.8a4.62,4.62,0,0,1,1-.62,2.13,2.13,0,0,1,.85-.18h.35l.32,0Zm-6.33,1.12A1.58,1.58,0,0,0,296.86,3a1.38,1.38,0,0,0-1.09-.4,1.64,1.64,0,0,0-1.18.43,1.71,1.71,0,0,0-.5,1.08Zm.9.7h-4a2.29,2.29,0,0,0,.16.87,1.6,1.6,0,0,0,.41.61,1.51,1.51,0,0,0,.6.35,2.39,2.39,0,0,0,.77.12,3,3,0,0,0,1.12-.22,2.89,2.89,0,0,0,.81-.44H298v1a8.22,8.22,0,0,1-.95.33,3.75,3.75,0,0,1-1,.13,2.9,2.9,0,0,1-2.11-.73,2.77,2.77,0,0,1-.77-2.09,3,3,0,0,1,.74-2.11,2.46,2.46,0,0,1,1.92-.79,2.25,2.25,0,0,1,1.7.64,2.59,2.59,0,0,1,.6,1.83Zm-7,2.63h-.92V4.3c0-.24,0-.47,0-.68a1.3,1.3,0,0,0-.14-.52.71.71,0,0,0-.32-.32,1.38,1.38,0,0,0-.61-.11,1.86,1.86,0,0,0-.77.19,5.17,5.17,0,0,0-.77.49c0,.08,0,.16,0,.26s0,.2,0,.3V7.4h-.92V4.3q0-.36,0-.69a1.35,1.35,0,0,0-.14-.52.69.69,0,0,0-.32-.31,1.38,1.38,0,0,0-.61-.11,1.61,1.61,0,0,0-.75.19,4.41,4.41,0,0,0-.75.47V7.4h-.92V2h.92v.61A3.61,3.61,0,0,1,285,2a2.12,2.12,0,0,1,.9-.2,1.86,1.86,0,0,1,.95.23,1.52,1.52,0,0,1,.58.65,4.21,4.21,0,0,1,1-.67,2.29,2.29,0,0,1,1-.21,1.58,1.58,0,0,1,1.33.54,2.39,2.39,0,0,1,.43,1.52ZM281.68,3h-.05a3.06,3.06,0,0,0-.4-.07l-.46,0a1.86,1.86,0,0,0-.82.19,3.45,3.45,0,0,0-.76.48V7.4h-.92V2h.92v.8a4.38,4.38,0,0,1,1-.62A2.09,2.09,0,0,1,281,2h.35l.32,0ZM275,6.06V4.53l-1,.07a4.9,4.9,0,0,0-.9.15,1.38,1.38,0,0,0-.63.35.85.85,0,0,0-.25.65.9.9,0,0,0,.28.71,1.32,1.32,0,0,0,.86.24,1.93,1.93,0,0,0,.88-.19A3.65,3.65,0,0,0,275,6.06Zm.92,1.34H275V6.82l-.33.23a2.12,2.12,0,0,1-.4.24,4.41,4.41,0,0,1-.52.19,2.91,2.91,0,0,1-.7.07,1.73,1.73,0,0,1-1.25-.49,1.64,1.64,0,0,1-.51-1.24,1.72,1.72,0,0,1,.27-1,1.65,1.65,0,0,1,.76-.6,3.83,3.83,0,0,1,1.19-.3c.46-.05,1-.09,1.49-.12V3.65a1,1,0,0,0-.11-.52.76.76,0,0,0-.31-.33,1.53,1.53,0,0,0-.47-.15,3.48,3.48,0,0,0-.57,0,3.43,3.43,0,0,0-.8.1,6,6,0,0,0-.92.28h0V2.06c.18-.05.44-.1.78-.16a5.72,5.72,0,0,1,1-.09,4.22,4.22,0,0,1,1,.1,1.91,1.91,0,0,1,.74.32,1.41,1.41,0,0,1,.47.58,2.15,2.15,0,0,1,.16.89ZM270.44,1h-3.67V3h3.15V3.9h-3.15V7.4h-1V.13h4.64Zm-9.73,2h0a3.06,3.06,0,0,0-.4-.07l-.45,0a1.87,1.87,0,0,0-.83.19,3.7,3.7,0,0,0-.76.48V7.4h-.92V2h.92v.8a4.62,4.62,0,0,1,1-.62A2.13,2.13,0,0,1,260,2h.35l.32,0Zm-6.42,1.73a2.5,2.5,0,0,0-.41-1.57,1.56,1.56,0,0,0-2.31,0,2.5,2.5,0,0,0-.41,1.57,2.48,2.48,0,0,0,.41,1.54,1.38,1.38,0,0,0,1.16.53,1.35,1.35,0,0,0,1.14-.52A2.45,2.45,0,0,0,254.29,4.68Zm1,0a3.07,3.07,0,0,1-.68,2.1,2.57,2.57,0,0,1-3.67,0,3.07,3.07,0,0,1-.68-2.1,3.11,3.11,0,0,1,.68-2.11,2.57,2.57,0,0,1,3.67,0A3.11,3.11,0,0,1,255.24,4.68ZM249.17,1H245.5V3h3.15V3.9H245.5V7.4h-1V.13h4.64ZM237.92,4.63a2.62,2.62,0,0,0-.33-1.47,1.18,1.18,0,0,0-1-.49,2.09,2.09,0,0,0-.8.17,3.77,3.77,0,0,0-.77.45V6.38a3.3,3.3,0,0,0,.68.24,3,3,0,0,0,.63.06,1.44,1.44,0,0,0,1.2-.52A2.31,2.31,0,0,0,237.92,4.63Zm1,0a3.57,3.57,0,0,1-.19,1.21,2.51,2.51,0,0,1-.54.93,2.09,2.09,0,0,1-.76.56,2.24,2.24,0,0,1-.92.2,3.1,3.1,0,0,1-.78-.09,3.15,3.15,0,0,1-.7-.29V9.41h-.92V2H235v.57a3.49,3.49,0,0,1,.83-.51,2.29,2.29,0,0,1,1-.21,1.79,1.79,0,0,1,1.54.75A3.36,3.36,0,0,1,238.87,4.61Zm-7.72-.54A1.63,1.63,0,0,0,230.78,3a1.38,1.38,0,0,0-1.09-.4,1.64,1.64,0,0,0-1.18.43A1.7,1.7,0,0,0,228,4.07Zm.89.7h-4a2.3,2.3,0,0,0,.15.87,1.6,1.6,0,0,0,.41.61,1.51,1.51,0,0,0,.6.35,2.39,2.39,0,0,0,.77.12,3,3,0,0,0,1.12-.22,2.89,2.89,0,0,0,.81-.44h.05v1a8.22,8.22,0,0,1-1,.33,3.75,3.75,0,0,1-1,.13,2.9,2.9,0,0,1-2.11-.73,2.77,2.77,0,0,1-.76-2.09,2.94,2.94,0,0,1,.73-2.11,2.46,2.46,0,0,1,1.92-.79,2.25,2.25,0,0,1,1.7.64,2.59,2.59,0,0,1,.6,1.83Zm-6.32,2.58a4.39,4.39,0,0,1-.57.12,3.62,3.62,0,0,1-.54,0,1.68,1.68,0,0,1-1.27-.45,2,2,0,0,1-.43-1.44V2.72h-.62V2h.62V.38h.92V2h1.89v.77h-1.89V5.21a6.15,6.15,0,0,0,0,.67,1,1,0,0,0,.13.45.65.65,0,0,0,.3.29,1.35,1.35,0,0,0,.57.09,1.62,1.62,0,0,0,.47-.07,2.49,2.49,0,0,0,.35-.11h.05Zm-5-2a1.91,1.91,0,0,1-.2.83,1.92,1.92,0,0,1-.55.71,3.3,3.3,0,0,1-.91.49,4.2,4.2,0,0,1-1.25.17,6.13,6.13,0,0,1-1.42-.15A6.8,6.8,0,0,1,215.16,7V5.74h.07a3.92,3.92,0,0,0,1.27.7,4,4,0,0,0,1.35.25,2.52,2.52,0,0,0,1.4-.33,1.06,1.06,0,0,0,.5-.9.94.94,0,0,0-.24-.71,1.61,1.61,0,0,0-.72-.36,7.33,7.33,0,0,0-.79-.16c-.28,0-.59-.09-.9-.16a2.74,2.74,0,0,1-1.44-.7,1.8,1.8,0,0,1-.46-1.29A1.81,1.81,0,0,1,216,.58a3.17,3.17,0,0,1,2-.58,6.44,6.44,0,0,1,2.54.51V1.65h-.07a3.39,3.39,0,0,0-1.09-.58,4.34,4.34,0,0,0-1.38-.23,2.2,2.2,0,0,0-1.25.32,1,1,0,0,0-.47.83,1,1,0,0,0,.23.71,1.6,1.6,0,0,0,.83.39c.21.05.5.11.88.17a9.8,9.8,0,0,1,1,.2,2.49,2.49,0,0,1,1.22.65A1.71,1.71,0,0,1,220.76,5.33ZM209.94,2,208.52,7.4h-.85l-1.4-4.2-1.4,4.2H204L202.59,2h.95l1,4.22L205.91,2h.76l1.4,4.22L209,2Zm-9.79,2.12A1.58,1.58,0,0,0,199.79,3a1.38,1.38,0,0,0-1.09-.4,1.63,1.63,0,0,0-1.18.43,1.71,1.71,0,0,0-.5,1.08Zm.89.7h-4a2.11,2.11,0,0,0,.16.87,1.49,1.49,0,0,0,.41.61,1.51,1.51,0,0,0,.6.35,2.39,2.39,0,0,0,.77.12,3,3,0,0,0,1.12-.22,2.89,2.89,0,0,0,.81-.44h0v1a7.46,7.46,0,0,1-.94.33,3.75,3.75,0,0,1-1,.13,2.9,2.9,0,0,1-2.11-.73,2.77,2.77,0,0,1-.77-2.09,3,3,0,0,1,.73-2.11,2.49,2.49,0,0,1,1.92-.79,2.25,2.25,0,0,1,1.71.64A2.63,2.63,0,0,1,201,4.27ZM194,7.4h-1.19L189.33.9V7.4h-.9V.13h1.5l3.14,5.94V.13h.9Z" transform="translate(0 1.98)"/></g></g></svg>