<svg xmlns="http://www.w3.org/2000/svg" viewBox="0 0 357.93 242.48"><defs><style>.cls-1{fill:#007f3e;}.cls-2{fill:#c69b5f;}.cls-3{fill:#c69c60;}.cls-3,.cls-4{fill-rule:evenodd;}.cls-4{fill:#fff;}</style></defs><title>Asset 1</title><g id="Layer_2" data-name="Layer 2"><g id="Layer_1-2" data-name="Layer 1"><path class="cls-1" d="M164.9,19.83Zm-83.65,0h77.37l-4.44,4.44-.41.21H82.34Zm-77.06,99c0,63.07,0,119.75,0,0ZM0,114.38V76.25A59.16,59.16,0,0,1,15.07,36.4,49.33,49.33,0,0,1,47.65,20l-1.12,4.76a45.41,45.41,0,0,0-28.47,15A54.24,54.24,0,0,0,4.23,76.25c0,11.8,0,25,0,38.13Z"/><path class="cls-1" d="M93,81.15,110.79,157H86.5l-5.68-29.37H48.19L42.53,157H18.25l10.66-45.47c38.6,4.08,52.82-11.66,64-30.38M55.06,0h18.8l10.6,45.07C50.1,61.68,50.85,89,31.21,101.7Z"/><path class="cls-1" d="M141.08,160.64a21.28,21.28,0,0,1-12.67-3.72,23.16,23.16,0,0,1-8-10.91,48.44,48.44,0,0,1-2.76-17.32V77.28a49.52,49.52,0,0,1,2.76-17.54,23.78,23.78,0,0,1,8-11.13,21.48,21.48,0,0,1,26.38,1.47q6.26,5.25,10.14,14.78l-2.25,14.7a18.88,18.88,0,0,0-1.25-7.26,9.59,9.59,0,0,0-3.69-4.57,10.36,10.36,0,0,0-5.86-1.58,10,10,0,0,0-8.11,3.57c-2,2.36-2.91,5.68-2.91,10v47c0,4,1,7.15,2.91,9.33a10.26,10.26,0,0,0,8.11,3.31,10.84,10.84,0,0,0,5.86-1.51,9.34,9.34,0,0,0,3.69-4.49,18.14,18.14,0,0,0,1.25-7.08l1.51,15q-2.92,9.18-8.95,14.34a21.46,21.46,0,0,1-14.16,5.12m10.47,43.71q-15.87,0-24.62-8.41c-5.82-5.64-8.73-13.48-8.73-23.66v-4l23.51-.11v4c0,3.39,1,6,2.84,7.89s4.46,2.8,7.77,2.8,5.86-.92,7.67-2.73a10.72,10.72,0,0,0,2.69-7.74V46.73H186.3V172.39c0,6.79-1.36,12.53-4.09,17.29a27.15,27.15,0,0,1-11.87,10.91Q162.56,204.34,151.55,204.35Z"/><path class="cls-1" d="M252,69.17h-5.38c-7.34,0-13.09,2-17.18,5.9s-6.19,9.28-6.26,16.14L220.9,66.26a42.55,42.55,0,0,1,13.27-15.81A30.57,30.57,0,0,1,252,44.78ZM199.53,46.73h23.62V158.8H199.53Z"/><path class="cls-1" d="M291.32,138.38a8.7,8.7,0,0,0,7-2.8c1.62-1.88,2.43-4.53,2.43-8V77.17c0-3.32-.81-5.9-2.43-7.7a10,10,0,0,0-13.82,0,11,11,0,0,0-2.54,7.67v50.41c0,3.47.81,6.12,2.46,8a8.76,8.76,0,0,0,6.93,2.8m.11,22c-6.92,0-12.86-1.26-17.76-3.72a25.84,25.84,0,0,1-11.28-10.8q-3.92-7.08-3.9-17V75.77q0-9.84,3.9-16.77a25.38,25.38,0,0,1,11.28-10.61c4.9-2.4,10.84-3.61,17.76-3.61a40.37,40.37,0,0,1,17.77,3.61A25.19,25.19,0,0,1,320.4,59c2.58,4.61,3.83,10.21,3.83,16.77V129.2c0,6.56-1.25,12.17-3.83,16.85a25.12,25.12,0,0,1-11.2,10.68C304.26,159.2,298.32,160.42,291.43,160.42Z"/><path class="cls-2" d="M313,194.27a6.31,6.31,0,0,0-1.07-4,3.86,3.86,0,0,0-3.19-1.33,3.68,3.68,0,0,0-3.13,1.36,6.5,6.5,0,0,0-1,4.05V224h-9V181.55h9v5.19a11.27,11.27,0,0,1,3-3.9,8.66,8.66,0,0,1,5.61-2,7.81,7.81,0,0,1,6.5,2.89c1.54,1.92,2.29,4.65,2.29,8.2V224H313ZM195,224.61A15.25,15.25,0,0,1,188,223a13.65,13.65,0,0,1-5.17-4.51l6.38-5.91a7.94,7.94,0,0,0,2.53,2.3,6.17,6.17,0,0,0,3,.79,4.43,4.43,0,0,0,3.47-1.34,5.48,5.48,0,0,0,1.23-3.85v-46h9v46.7a15.15,15.15,0,0,1-1.6,7.22,10.71,10.71,0,0,1-4.6,4.58A15.68,15.68,0,0,1,195,224.61Zm25.66-58.3a5,5,0,1,1-5,5A5,5,0,0,1,220.61,166.31Zm-4.48,15.24h9V224h-9Zm35,0H260L248.68,224h-7l-11.36-42.45h8.78l6.06,29.65Zm29.43,11.7a4.47,4.47,0,0,0-1.14-3.29,4.25,4.25,0,0,0-3.18-1.16,3.5,3.5,0,0,0-2.81,1.16,4.88,4.88,0,0,0-1,3.29H263.8c0-3.95,1.1-7,3.29-9.18s5.29-3.26,9.31-3.26a15,15,0,0,1,6.87,1.46,10,10,0,0,1,4.37,4.25,14.08,14.08,0,0,1,1.52,6.73V224h-8.6v-4.18c-.07.18-.14.36-.22.54a6.84,6.84,0,0,1-2.79,3.19,8.91,8.91,0,0,1-4.51,1.06c-3.32,0-5.83-1-7.54-3s-2.55-5-2.55-9c0-4.67,1.14-8.18,3.43-10.56s5.67-3.56,10.13-3.56h4.05Zm0,18.16V206h-3.75a4.84,4.84,0,0,0-4,1.67,7.7,7.7,0,0,0-1.35,5,4.67,4.67,0,0,0,1,3.25,3.92,3.92,0,0,0,3,1.07,5,5,0,0,0,3.81-1.38A5.83,5.83,0,0,0,280.56,211.41Z"/><path class="cls-2" d="M164.9,19.83H306.62c14.12,0,26.94,6.35,36.24,16.57a59.18,59.18,0,0,1,15.07,39.85V186.07a59.15,59.15,0,0,1-15.07,39.84c-9.3,10.22-22.12,16.57-36.24,16.57H51.31c-14.11,0-26.94-6.35-36.24-16.57A59.15,59.15,0,0,1,0,186.07V118.81H4.22v67.26a54.29,54.29,0,0,0,13.84,36.56c8.53,9.38,20.3,15.21,33.25,15.21H306.62c12.95,0,24.72-5.83,33.25-15.21a54.29,54.29,0,0,0,13.84-36.56V76.25a54.25,54.25,0,0,0-13.84-36.56c-8.53-9.39-20.3-15.21-33.25-15.21H160.25Z"/><path class="cls-3" d="M12.85,104.29V105c0,.23,6.4,1.2,13.05,2.11,82.15,11.26,60.22-62.08,114.17-78a77.84,77.84,0,0,0-13.79.88C34.11,42.65,64.5,98.42,12.85,104.29"/><path class="cls-4" d="M93.31,55.1c-10.24,6.51-15.15,46.77-49.37,46.4,13.19-8.6,15.22-34.06,49.37-46.4"/></g></g></svg>