<?xml version="1.0" encoding="UTF-8"?>
<!DOCTYPE svg PUBLIC "-//W3C//DTD SVG 1.1//EN" "http://www.w3.org/Graphics/SVG/1.1/DTD/svg11.dtd">
<!-- Creator: CorelDRAW X6 -->
<svg xmlns="http://www.w3.org/2000/svg" xml:space="preserve" width="1024px" height="400px" version="1.1" style="shape-rendering:geometricPrecision; text-rendering:geometricPrecision; image-rendering:optimizeQuality; fill-rule:evenodd; clip-rule:evenodd"
viewBox="0 0 1024 400"
 xmlns:xlink="http://www.w3.org/1999/xlink">
 <defs>
  <style type="text/css">
   <![CDATA[
    .str0 {stroke:#54AF3A;stroke-width:8.33268}
    .fil3 {fill:none}
    .fil0 {fill:#54AF3A}
    .fil1 {fill:#FEFEFE}
    .fil2 {fill:#FEFEFE;fill-rule:nonzero}
   ]]>
  </style>
 </defs>
 <g id="Layer_x0020_1">
  <metadata id="CorelCorpID_0Corel-Layer"/>
  <polygon class="fil0" points="34,74 991,74 991,323 34,323 "/>
  <path class="fil1" d="M791 244c4,-1 7,-1 11,-1 5,0 11,0 15,0 5,0 11,0 16,0 0,-17 1,-31 2,-42 1,-11 1,-18 1,-21 0,-6 -2,-11 -4,-14 -3,-3 -7,-6 -12,-7 -5,-1 -11,-2 -18,-2 -11,0 -25,2 -40,5 -1,4 -1,7 -1,9 0,2 -1,6 -2,11 14,-5 25,-8 35,-8 3,0 6,1 8,2 2,1 3,3 3,5 0,1 0,1 0,2 0,1 -1,1 -1,2 -1,1 -1,1 -2,2 -1,0 -3,1 -5,2 -2,1 -5,1 -8,2 -7,1 -12,3 -17,4 -4,1 -8,3 -10,5 -3,2 -5,4 -7,6 -2,2 -3,5 -4,7 -1,2 -1,5 -1,8 0,4 1,8 4,13 2,4 6,7 10,9 4,2 10,3 17,3 4,0 8,0 12,-1l0 0 1 0 0 0zm11 -1l0 0 1 -20m-1 0c-2,1 -5,2 -8,3l0 0c-2,0 -3,1 -4,1 -1,0 -3,0 -4,0 -3,0 -6,-1 -7,-2 -1,-1 -2,-3 -2,-5 0,-1 0,-2 1,-3 1,-1 1,-2 3,-3 1,-1 3,-2 4,-2 2,-1 4,-1 7,-2 3,-1 5,-2 6,-2 1,0 3,-1 5,-2 0,7 -1,12 -1,17zm-203 20c1,-7 1,-12 2,-16 0,-4 1,-10 1,-17 0,-7 1,-14 1,-22 0,-3 0,-6 0,-9l33 0c0,3 0,6 0,8 0,8 -1,16 -1,25 0,15 0,26 0,32 -6,0 -12,0 -17,0 -5,0 -11,0 -18,0zm75 0l-9 -27 -19 -57c6,0 12,0 17,0 6,0 11,0 16,0 1,4 3,10 5,20 3,9 6,21 9,34l2 -7c0,-1 2,-4 4,-10l13 -36c6,0 11,0 17,0 5,0 11,0 17,0l-11 24 -21 48 -4 11c-6,0 -12,0 -17,0 -5,0 -11,0 -18,0zm176 0c2,-12 3,-26 4,-41 1,-15 1,-29 2,-42 7,0 12,0 17,0 6,0 11,0 16,0l-1 11c2,-2 3,-4 5,-5 1,-1 3,-2 5,-3 2,-1 4,-2 6,-3 2,-1 5,-1 7,-2 3,0 5,-1 8,-1 4,0 8,0 11,1 4,1 7,2 9,4 2,2 5,3 6,6 2,2 3,5 3,7 1,3 1,5 1,8 0,2 0,7 -1,13l-1 30c0,6 0,11 0,16 -6,0 -11,0 -15,0 -6,0 -12,0 -18,0 1,-5 1,-12 2,-22 1,-10 1,-17 1,-21 0,-6 -1,-10 -4,-13 -2,-2 -5,-4 -9,-4 -3,0 -6,1 -9,3 -3,2 -5,5 -6,9 -2,4 -3,10 -3,19 -1,9 -1,18 -1,28 -5,0 -11,0 -16,0 -5,0 -11,0 -18,0z"/>
  <polygon class="fil1" points="604,170 604,159 636,159 636,170 "/>
  <path class="fil1" d="M74 243l7 -12 42 -80 4 -9c1,-3 3,-6 5,-11 10,0 17,0 21,0 8,0 15,0 21,0l12 34 24 65 5 12c-9,0 -15,0 -17,0 -5,0 -11,0 -20,0 -2,-9 -6,-20 -10,-32l-41 0c-5,10 -10,20 -15,32 -10,0 -16,0 -19,0 -4,0 -11,0 -20,0zm185 -64c12,-7 27,-6 33,3 6,9 1,22 -11,29 -12,7 -27,6 -33,-3 -6,-9 -1,-22 11,-29zm-122 8l25 0c-6,-19 -10,-30 -10,-32 -4,8 -7,15 -9,20l-6 12zm93 65c7,2 13,4 19,5 5,1 10,1 14,1 3,0 5,0 8,-1 2,-1 4,-1 6,-2 1,-1 3,-2 4,-4 1,-1 2,-3 2,-5 1,-2 1,-4 1,-6 0,-2 0,-5 1,-9 -2,2 -4,3 -6,5 -2,1 -3,2 -6,3 -2,1 -5,2 -7,2 -3,1 -6,1 -9,1 -7,0 -13,-2 -19,-5 -6,-3 -10,-8 -12,-13 -3,-6 -4,-12 -4,-19 0,-8 1,-15 4,-21 3,-6 7,-12 13,-16 5,-4 11,-7 18,-9 7,-2 14,-3 22,-3 5,0 10,0 16,1 6,1 14,2 25,4l-2 27 -2 30c0,2 0,4 0,5l-1 27c0,3 -1,7 -1,10 -1,3 -2,5 -3,8 -1,2 -3,4 -5,6 -2,2 -5,3 -8,5 -3,1 -6,2 -10,3 -4,1 -9,1 -13,1 -3,0 -6,0 -10,0 -4,0 -8,-1 -12,-1 -4,-1 -7,-1 -10,-2 -3,-1 -7,-1 -11,-2l-1 -11c0,-2 0,-7 -1,-14zm103 -10l3 -36 1 -21c0,-4 0,-8 0,-11 0,-4 0,-9 0,-15 7,0 12,0 16,0 5,0 10,0 16,0l0 9c2,-2 4,-4 5,-5 1,-1 3,-2 5,-3 2,-1 4,-2 5,-2 2,0 4,-1 6,-1 2,0 4,0 7,1 0,6 0,11 0,15l1 13c-3,-1 -6,-1 -8,-1 -3,0 -6,0 -8,1 -2,1 -4,2 -6,4 -2,2 -3,4 -4,7 -1,3 -2,7 -2,14 0,6 -1,13 -1,21 0,3 0,6 0,11 -5,0 -11,0 -16,0 -5,0 -11,0 -17,0zm173 -28c5,2 9,3 12,4 4,1 7,1 11,1 4,0 7,-1 10,-2 2,-1 4,-2 5,-4 2,-2 3,-5 3,-8 1,-6 2,-15 2,-29 1,-14 1,-25 1,-35l0 -10c9,0 15,0 17,0 4,0 10,0 18,0l-2 36c-1,11 -1,22 -1,34 0,9 -1,16 -1,19 -1,3 -2,6 -3,8 -1,2 -2,4 -4,5 -2,2 -4,4 -7,5 -4,2 -8,3 -12,4 -5,1 -10,2 -15,2 -10,0 -21,-1 -33,-4l0 -26z"/>
  <path class="fil2" d="M455 156c7,0 13,1 20,3 6,2 12,5 16,9 4,4 8,9 10,14 2,5 3,11 3,17 0,6 -1,12 -3,17 -2,5 -5,10 -9,15 -4,5 -10,8 -17,11 -7,2 -14,3 -22,3 -7,0 -14,-1 -20,-3 -6,-2 -12,-5 -16,-9 -4,-4 -8,-9 -10,-14 -2,-5 -3,-11 -3,-17 0,-6 1,-12 3,-17 2,-5 6,-10 10,-15 5,-4 10,-8 17,-10 7,-2 14,-4 21,-4zm-1 25c-4,0 -7,1 -9,3 -3,2 -5,5 -6,8 -1,4 -2,7 -2,11 0,6 2,11 5,14 3,3 7,5 11,5 3,0 7,-1 9,-3 3,-2 5,-5 6,-8 1,-4 2,-7 2,-12 0,-3 -1,-6 -2,-9 -1,-3 -3,-5 -5,-7 -3,-2 -5,-2 -9,-2z"/>
  <path class="fil1" d="M489 167c-5,8 -11,17 -19,25 0,-1 0,-1 -1,-2 -1,-3 -3,-5 -5,-7 -1,0 -1,-1 -2,-1 5,-7 10,-15 13,-23l0 0c5,2 10,4 14,7zm-49 48c-9,5 -19,10 -28,12 10,-5 18,-11 26,-18 0,2 1,4 2,6z"/>
  <path class="fil3 str0" d="M489 167c-5,8 -11,17 -19,25m-30 23c-9,5 -19,10 -28,12 10,-5 18,-11 26,-18m24 -27c5,-7 10,-15 13,-23"/>
  <path class="fil1" d="M496 147c-5,30 -44,69 -85,80 36,-19 58,-50 70,-82l-12 1 23 -33 18 37c-4,-1 -9,-2 -13,-3z"/>
  <path class="fil2" d="M624 135l-3 0 -10 -18 0 18 -3 0 0 -21 4 0 9 17 0 -17 3 0 0 21zm20 -7l-11 0c0,1 0,2 0,2 0,1 1,1 1,2 0,0 1,1 2,1 1,0 1,0 2,0 1,0 2,0 3,-1 1,0 2,-1 2,-1l0 0 0 3c-1,0 -2,1 -3,1 -1,0 -2,0 -3,0 -3,0 -5,-1 -6,-2 -1,-1 -2,-3 -2,-6 0,-3 1,-5 2,-6 1,-1 3,-2 5,-2 2,0 4,1 5,2 1,1 2,3 2,5l0 1zm-3 -2c0,-1 0,-2 -1,-3 -1,-1 -2,-1 -3,-1 -1,0 -3,0 -3,1 -1,1 -1,2 -1,3l9 0zm28 -6l-4 15 -2 0 -4 -12 -4 12 -2 0 -4 -15 3 0 3 12 4 -12 2 0 4 12 3 -12 3 0zm31 10c0,1 0,2 -1,2 0,1 -1,1 -2,2 -1,1 -2,1 -3,1 -1,0 -2,0 -4,0 -1,0 -3,0 -4,0 -1,0 -2,-1 -4,-1l0 -3 0 0c1,1 2,2 4,2 1,0 3,1 4,1 2,0 3,0 4,-1 1,-1 1,-1 1,-3 0,-1 0,-2 -1,-2 0,0 -1,-1 -2,-1 -1,0 -1,0 -2,0 -1,0 -2,0 -3,0 -2,0 -3,-1 -4,-2 -1,-1 -1,-2 -1,-4 0,-2 1,-3 2,-4 1,-1 3,-2 6,-2 1,0 3,0 4,0 1,0 2,1 3,1l0 3 0 0c-1,-1 -2,-1 -3,-2 -1,0 -3,-1 -4,-1 -1,0 -3,0 -4,1 -1,1 -1,1 -1,2 0,1 0,2 1,2 0,0 1,1 2,1 1,0 1,0 3,0 1,0 2,0 3,1 2,0 3,1 3,2 1,1 1,2 1,3zm14 6c0,0 -1,0 -2,0 -1,0 -1,0 -2,0 -2,0 -3,0 -4,-1 -1,-1 -1,-2 -1,-4l0 -8 -2 0 0 -2 2 0 0 -4 3 0 0 4 5 0 0 2 -5 0 0 7c0,1 0,1 0,2 0,0 0,1 0,1 0,0 0,1 1,1 0,0 1,0 2,0 0,0 1,0 1,0 0,0 1,0 1,0l0 0 0 2zm18 -7l-11 0c0,1 0,2 0,2 0,1 1,1 1,2 0,0 1,1 2,1 1,0 1,0 2,0 1,0 2,0 3,-1 1,0 2,-1 2,-1l0 0 0 3c-1,0 -2,1 -3,1 -1,0 -2,0 -3,0 -3,0 -5,-1 -6,-2 -1,-1 -2,-3 -2,-6 0,-3 1,-5 2,-6 1,-1 3,-2 5,-2 2,0 4,1 5,2 1,1 2,3 2,5l0 1zm-3 -2c0,-1 0,-2 -1,-3 -1,-1 -2,-1 -3,-1 -1,0 -3,0 -3,1 -1,1 -1,2 -1,3l9 0zm22 2c0,1 0,2 -1,3 0,1 -1,2 -2,3 -1,1 -1,1 -2,2 -1,0 -2,1 -3,1 -1,0 -2,0 -2,0 -1,0 -1,0 -2,-1l0 6 -3 0 0 -21 3 0 0 2c1,-1 1,-1 2,-1 1,0 2,-1 3,-1 2,0 3,1 4,2 1,1 2,3 2,6zm-3 0c0,-2 0,-3 -1,-4 -1,-1 -2,-1 -3,-1 -1,0 -2,0 -2,0 -1,0 -1,1 -2,1l0 9c1,0 1,1 2,1 1,0 1,0 2,0 1,0 3,0 3,-1 1,-1 1,-2 1,-4zm32 -10l-10 0 0 6 9 0 0 2 -9 0 0 10 -3 0 0 -21 13 0 0 2zm17 10c0,3 -1,5 -2,6 -1,1 -3,2 -5,2 -2,0 -4,-1 -5,-2 -1,-1 -2,-3 -2,-6 0,-3 1,-5 2,-6 1,-1 3,-2 5,-2 2,0 4,1 5,2 1,1 2,3 2,6zm-3 0c0,-2 0,-3 -1,-4 -1,-1 -2,-1 -3,-1 -1,0 -3,0 -3,1 -1,1 -1,2 -1,4 0,2 0,3 1,4 1,1 2,1 3,1 1,0 2,0 3,-1 1,-1 1,-2 1,-4zm18 -5l0 0c0,0 -1,0 -1,0 0,0 -1,0 -1,0 -1,0 -2,0 -2,1 -1,0 -1,1 -2,1l0 11 -3 0 0 -15 3 0 0 2c1,-1 2,-1 3,-2 1,0 2,-1 2,-1 0,0 1,0 1,0 0,0 1,0 1,0l0 3zm28 -6l-10 0 0 6 9 0 0 2 -9 0 0 10 -3 0 0 -21 13 0 0 2zm15 18l-3 0 0 -2c0,0 -1,0 -1,1 0,0 -1,1 -1,1 0,0 -1,0 -1,1 -1,0 -1,0 -2,0 -1,0 -3,0 -4,-1 -1,-1 -1,-2 -1,-4 0,-1 0,-2 1,-3 1,-1 1,-1 2,-2 1,0 2,-1 3,-1 1,0 3,0 4,0l0 0c0,-1 0,-1 0,-1 0,0 -1,-1 -1,-1 0,0 -1,0 -1,0 -1,0 -1,0 -2,0 -1,0 -1,0 -2,0 -1,0 -2,0 -3,1l0 0 0 -3c1,0 1,0 2,0 1,0 2,0 3,0 1,0 2,0 3,0 1,0 2,0 2,1 1,0 1,1 1,2 0,1 0,2 0,3l0 11zm-3 -4l0 -4c-1,0 -2,0 -3,0 -1,0 -2,0 -3,0 -1,0 -1,1 -2,1 0,0 -1,1 -1,2 0,1 0,2 1,2 1,0 1,1 2,1 1,0 2,0 2,-1 1,0 1,-1 2,-1zm19 -9l0 0c0,0 -1,0 -1,0 0,0 -1,0 -1,0 -1,0 -2,0 -2,1 -1,0 -1,1 -2,1l0 11 -3 0 0 -15 3 0 0 2c1,-1 2,-1 3,-2 1,0 2,-1 2,-1 0,0 1,0 1,0 0,0 1,0 1,0l0 3zm27 13l-3 0 0 -9c0,-1 0,-1 0,-2 0,-1 0,-1 0,-1 0,0 -1,-1 -1,-1 0,0 -1,0 -2,0 -1,0 -1,0 -2,1 -1,0 -1,1 -2,1 0,0 0,0 0,1 0,0 0,1 0,1l0 10 -3 0 0 -9c0,-1 0,-1 0,-2 0,-1 0,-1 0,-1 0,0 -1,-1 -1,-1 0,0 -1,0 -2,0 -1,0 -1,0 -2,1 -1,0 -1,1 -2,1l0 12 -3 0 0 -15 3 0 0 2c1,-1 2,-1 2,-2 1,0 2,-1 3,-1 1,0 2,0 3,1 1,0 1,1 2,2 1,-1 2,-2 3,-2 1,0 2,-1 3,-1 2,0 3,1 4,2 1,1 1,2 1,4l0 10zm20 -7l-11 0c0,1 0,2 0,2 0,1 1,1 1,2 0,0 1,1 2,1 1,0 1,0 2,0 1,0 2,0 3,-1 1,0 2,-1 2,-1l0 0 0 3c-1,0 -2,1 -3,1 -1,0 -2,0 -3,0 -3,0 -5,-1 -6,-2 -1,-1 -2,-3 -2,-6 0,-3 1,-5 2,-6 1,-1 3,-2 5,-2 2,0 4,1 5,2 1,1 2,3 2,5l0 1zm-3 -2c0,-1 0,-2 -1,-3 -1,-1 -2,-1 -3,-1 -1,0 -3,0 -3,1 -1,1 -1,2 -1,3l9 0zm18 -3l0 0c0,0 -1,0 -1,0 0,0 -1,0 -1,0 -1,0 -2,0 -2,1 -1,0 -1,1 -2,1l0 11 -3 0 0 -15 3 0 0 2c1,-1 2,-1 3,-2 1,0 2,-1 2,-1 0,0 1,0 1,0 0,0 1,0 1,0l0 3zm15 8c0,1 -1,3 -2,3 -1,1 -3,1 -5,1 -1,0 -2,0 -3,0 -1,0 -2,-1 -2,-1l0 -3 0 0c1,1 2,1 3,1 1,0 2,1 3,1 1,0 2,0 3,-1 1,0 1,-1 1,-2 0,-1 0,-1 -1,-1 0,0 -1,-1 -2,-1 0,0 -1,0 -1,0 -1,0 -1,0 -2,0 -1,0 -2,-1 -3,-2 -1,-1 -1,-2 -1,-3 0,-1 0,-1 0,-2 0,-1 1,-1 1,-2 1,0 1,-1 2,-1 1,0 2,0 3,0 1,0 2,0 3,0 1,0 2,0 2,1l0 3 0 0c-1,0 -1,-1 -2,-1 -1,0 -2,-1 -3,-1 -1,0 -2,0 -2,1 -1,0 -1,1 -1,2 0,1 0,1 1,1 0,0 1,1 2,1 0,0 1,0 2,0 1,0 1,0 1,0 1,0 2,1 3,1 1,1 1,2 1,3z"/>
 </g>
</svg>
